<svg id="Layer_1" data-name="Layer 1" xmlns="http://www.w3.org/2000/svg" xmlns:xlink="http://www.w3.org/1999/xlink" viewBox="0 0 172 32"><defs><style>.cls-1{fill:#fff;fill-rule:evenodd;}.cls-2{fill:#0df;}.cls-3{mask:url(#mask);}.cls-4{fill:#006dc3;}.cls-5{mask:url(#mask-2-2);}.cls-6{fill:#0053ff;}.cls-7{fill:#008cff;}.cls-8{mask:url(#mask-3);}.cls-9{fill:#222;}.cls-10{mask:url(#mask-4-2);}.cls-11{fill:#0f1b2e;}</style><mask id="mask" x="-0.62" y="0.39" width="30" height="32" maskUnits="userSpaceOnUse"><g id="mask-2"><path class="cls-1" d="M0,2.16,1.51,7A1.59,1.59,0,0,0,3,8.07H28.38L26.29,1.51A1.59,1.59,0,0,0,24.79.39H1.21A1.33,1.33,0,0,0,0,2.16"/></g></mask><mask id="mask-2-2" x="-0.62" y="-0.55" width="30" height="32.37" maskUnits="userSpaceOnUse"><g id="mask-4"><path class="cls-1" d="M14.12,23.63a19,19,0,0,1-9.83-2.74l-4.4,4.33a1.7,1.7,0,0,0,.29,2.65,26.59,26.59,0,0,0,27.89,0,1.7,1.7,0,0,0,.29-2.65l-3.55-3.51A1.57,1.57,0,0,0,23,21.44a18.93,18.93,0,0,1-8.86,2.19"/></g></mask><mask id="mask-3" x="-0.62" y="0.41" width="30" height="31" maskUnits="userSpaceOnUse"><g id="mask-6"><path class="cls-1" d="M18.16,7.83l-13.87,13a19.36,19.36,0,0,0,8.12,2.53L28.83,7.83Z"/></g></mask><mask id="mask-4-2" x="44.69" y="8.26" width="101" height="16" maskUnits="userSpaceOnUse"><g id="mask-8"><path class="cls-1" d="M58,20.23v3.44H44.69V21L52.3,11.7H44.89V8.26H57.76V11l-7.6,9.28Zm9.64-1.11V17.53h-2.9c-2,0-2.61.78-2.61,1.82s.9,1.88,2.39,1.88A3.12,3.12,0,0,0,67.65,19.12Zm4.24-4V24h-4V22.09c-.78,1.42-2.3,2.17-4.45,2.17-3.42,0-5.46-2-5.46-4.71s1.82-4.65,6.28-4.65h3.36c0-1.93-1.08-3.06-3.36-3.06a6.78,6.78,0,0,0-4.21,1.44l-1.52-3.14a10.68,10.68,0,0,1,6.3-1.88C69.31,8.26,71.89,10.45,71.89,15.16Zm27.19.07v9H94.79V15.94c0-2.55-1.07-3.72-2.8-3.72-1.92,0-3.27,1.31-3.27,4.13v7.91H84.44V15.94c0-2.55-1-3.72-2.81-3.72s-3.24,1.31-3.24,4.13v7.91H74.11V8.49H78.2v1.82a5.81,5.81,0,0,1,4.64-2.05,5.43,5.43,0,0,1,4.87,2.58A6.48,6.48,0,0,1,93,8.26C96.55,8.26,99.08,10.43,99.08,15.23Zm27.19,0v9H122V15.94c0-2.55-1.08-3.72-2.81-3.72-1.92,0-3.27,1.31-3.27,4.13v7.91h-4.28V15.94c0-2.55-1-3.72-2.8-3.72s-3.24,1.31-3.24,4.13v7.91H101.3V8.49h4.09v1.82A5.81,5.81,0,0,1,110,8.26a5.42,5.42,0,0,1,4.86,2.58,6.48,6.48,0,0,1,5.33-2.58C123.74,8.26,126.27,10.43,126.27,15.23Zm14,1c0-2.69-1.6-4.3-3.73-4.3s-3.76,1.61-3.76,4.3,1.64,4.3,3.76,4.3S140.28,19,140.28,16.26Zm-11.79,0a8,8,0,0,1,16.09,0,8,8,0,0,1-16.09,0Z"/></g></mask></defs><title>Artboard 1</title><g id="Page-1"><g id="Logo"><g id="logo-2" data-name="logo"><g id="Group"><g id="Mask-5" data-name="Mask"><path id="path-1" class="cls-2" d="M0,2.16,1.51,7A1.59,1.59,0,0,0,3,8.07H28.38L26.29,1.51A1.59,1.59,0,0,0,24.79.39H1.21A1.33,1.33,0,0,0,0,2.16"/></g><g class="cls-3"><rect class="cls-2" x="-0.62" y="0.39" width="30" height="32"/></g></g><path id="path-3" class="cls-4" d="M14.12,23.63a19,19,0,0,1-9.83-2.74l-4.4,4.33a1.7,1.7,0,0,0,.29,2.65,26.59,26.59,0,0,0,27.89,0,1.7,1.7,0,0,0,.29-2.65l-3.55-3.51A1.57,1.57,0,0,0,23,21.44a18.93,18.93,0,0,1-8.86,2.19"/><g class="cls-5"><rect id="Rectangle" class="cls-6" x="-0.62" y="-0.55" width="30" height="32"/></g><path id="path-5" class="cls-7" d="M18.16,7.83l-13.87,13a19.36,19.36,0,0,0,8.12,2.53L28.83,7.83Z"/><g class="cls-8"><rect class="cls-7" x="-0.62" y="0.41" width="30" height="31"/></g><path id="path-7" class="cls-9" d="M58,20.23v3.44H44.69V21L52.3,11.7H44.89V8.26H57.76V11l-7.6,9.28Zm9.64-1.11V17.53h-2.9c-2,0-2.61.78-2.61,1.82s.9,1.88,2.39,1.88A3.12,3.12,0,0,0,67.65,19.12Zm3.92-4V24h-4V22.09c-.78,1.42-2.3,2.17-4.45,2.17-3.42,0-5.46-2-5.46-4.71S59.51,14.9,64,14.9h3.36c0-1.93-1.08-3.06-3.36-3.06a6.78,6.78,0,0,0-4.21,1.44l-1.52-3.14a10.68,10.68,0,0,1,6.3-1.88C69,8.26,71.57,10.45,71.57,15.16Zm27.51.07v9H94.79V15.94c0-2.55-1.07-3.72-2.8-3.72-1.92,0-3.27,1.31-3.27,4.13v7.91H84.44V15.94c0-2.55-1-3.72-2.81-3.72s-3.24,1.31-3.24,4.13v7.91H74.11V8.49H78.2v1.82a5.81,5.81,0,0,1,4.64-2.05,5.43,5.43,0,0,1,4.87,2.58A6.48,6.48,0,0,1,93,8.26C96.55,8.26,99.08,10.43,99.08,15.23Zm27.19,0v9H122V15.94c0-2.55-1.08-3.72-2.81-3.72-1.92,0-3.27,1.31-3.27,4.13v7.91h-4.28V15.94c0-2.55-1-3.72-2.8-3.72s-3.24,1.31-3.24,4.13v7.91H101.3V8.49h4.09v1.82A5.81,5.81,0,0,1,110,8.26a5.42,5.42,0,0,1,4.86,2.58,6.48,6.48,0,0,1,5.33-2.58C123.74,8.26,126.27,10.43,126.27,15.23Zm14,1c0-2.69-1.6-4.3-3.73-4.3s-3.76,1.61-3.76,4.3,1.64,4.3,3.76,4.3S140.28,19,140.28,16.26Zm-11.79,0a8,8,0,0,1,16.09,0,8,8,0,0,1-16.09,0Z"/><g class="cls-10"><rect class="cls-11" x="44.69" y="8.26" width="101" height="16"/></g><path id="Combined-Shape" class="cls-11" d="M147,24.18c1,0,1,0,1.63-.64s.65-.64.65-1.62,0-1-.64-1.62-.64-.62-1.64-.62-1,0-1.63.62-.65.62-.65,1.62,0,1,.66,1.62S146,24.18,147,24.18Z"/><path id="ai" class="cls-11" d="M155.74,24.35q3.44,0,4.68-2.24h0v2h4.17V15c0-2.39-.63-4.18-1.91-5.36a7.74,7.74,0,0,0-5.48-1.78,13,13,0,0,0-3.62.51,9.44,9.44,0,0,0-3,1.43h0l1.6,3.26a6.05,6.05,0,0,1,2-1.09,7.45,7.45,0,0,1,2.42-.41,3.8,3.8,0,0,1,2.65.82,3.05,3.05,0,0,1,.89,2.35H156.6a8,8,0,0,0-5,1.28A4.27,4.27,0,0,0,150,19.48a4.62,4.62,0,0,0,.69,2.51,4.49,4.49,0,0,0,2,1.73A7,7,0,0,0,155.74,24.35Zm1.66-2.92a3,3,0,0,1-1.86-.53,1.75,1.75,0,0,1-.68-1.44c0-1.28.92-1.92,2.77-1.92h3.07v1.67a3.09,3.09,0,0,1-1.26,1.66A3.81,3.81,0,0,1,157.4,21.43ZM168.49,5.86a3,3,0,0,0,2.1-.71,2.28,2.28,0,0,0,.81-1.8,2.1,2.1,0,0,0-.81-1.68,3.17,3.17,0,0,0-2.1-.67,3.09,3.09,0,0,0-2.11.7,2.18,2.18,0,0,0-.81,1.73,2.22,2.22,0,0,0,.81,1.74A3.14,3.14,0,0,0,168.49,5.86Zm2.91,18.21V8.5h-4.86V24.07Z"/></g></g></g></svg>