<svg width="96" height="96" fill="none" xmlns="http://www.w3.org/2000/svg"><path d="M48 94c25.405 0 46-20.595 46-46S73.405 2 48 2 2 22.595 2 48s20.595 46 46 46Z" fill="url(#a)"/><path d="M48 4c24.3 0 44 19.7 44 44S72.3 92 48 92 4 72.3 4 48 23.7 4 48 4Zm0-4C21.5 0 0 21.5 0 48s21.5 48 48 48 48-21.5 48-48S74.5 0 48 0Z" fill="#969696"/><path d="M32.358 29.472H25.68v27.83h6.68v-27.83Z" fill="#E6E4E3"/><path d="M39.038 29.472h-6.68v27.83h6.68v-27.83Z" fill="url(#b)"/><path d="M45.717 29.472h-6.68v27.83h6.68v-27.83Z" fill="url(#c)"/><path d="M52.396 29.472h-6.679v27.83h6.68v-27.83Z" fill="url(#d)"/><path d="M57.962 29.472h-5.566v27.83h5.566v-27.83Z" fill="url(#e)"/><path d="M64.641 29.472h-6.679v27.83h6.68v-27.83Z" fill="url(#f)"/><path d="M71.32 29.472h-6.678v27.83h6.679v-27.83Z" fill="url(#g)"/><path d="M32.358 57.302H25.68v7.792h6.68v-7.792Z" fill="#FFFDFE"/><path d="M39.038 57.302h-6.68v7.792h6.68v-7.792Z" fill="url(#h)"/><path d="M45.717 57.302h-6.68v7.792h6.68v-7.792Z" fill="url(#i)"/><path d="M52.396 57.302h-6.679v7.792h6.68v-7.792Z" fill="url(#j)"/><path d="M57.962 57.302h-5.566v7.792h5.566v-7.792Z" fill="url(#k)"/><path d="M64.641 57.302h-6.679v7.792h6.68v-7.792Z" fill="url(#l)"/><path d="M71.32 57.302h-6.678v7.792h6.679v-7.792Z" fill="url(#m)"/><path d="M74.049 27.654c-2.536-2.56-5.868-3.959-9.435-3.959h-9.465v-.953c0-1.399-1.12-2.53-2.506-2.53h-.826l5.013-6.281c.471-.596.383-1.489-.207-1.965a1.386 1.386 0 0 0-1.946.208l-5.985 7.562-2.949-5.18a1.378 1.378 0 0 0-1.887-.506 1.406 1.406 0 0 0-.501 1.905l2.447 4.346h-1.445a2.516 2.516 0 0 0-2.506 2.53v.953h-9.494c-3.568 0-6.93 1.4-9.435 3.96C20.386 30.214 19 33.608 19 37.21v24.203c0 3.602 1.386 6.996 3.922 9.526 2.535 2.56 5.867 3.96 9.435 3.96h.118l.413.982a1.692 1.692 0 0 0 1.68 1.459c.826 0 1.563-.626 1.68-1.46l.414-.981h23.676l.413.982a1.692 1.692 0 0 0 1.68 1.459c.826 0 1.564-.626 1.681-1.46l.413-.981h.118c3.568 0 6.93-1.4 9.436-3.96A13.418 13.418 0 0 0 78 61.413V37.21c-.03-3.602-1.415-6.995-3.951-9.556Zm-44.936 42.66a1.517 1.517 0 0 1-1.503-1.518c0-.834.678-1.518 1.503-1.518.826 0 1.504.684 1.504 1.518 0 .833-.649 1.518-1.504 1.518Zm5.22 0a1.517 1.517 0 0 1-1.504-1.518c0-.834.678-1.518 1.503-1.518.826 0 1.504.684 1.504 1.518 0 .833-.678 1.518-1.504 1.518Zm37.12-21.434c0 .06-.059.12-.088.12-.177.208-.885 1.547-1.18 2.083-.118.208-.206.357-.236.417-1.621 2.768-3.213 5.21-5.985 6.966-2.624 1.637-5.396 2.739-8.02 3.215-3.656.655-7.666.982-12.59 1.012h-.089c-2.771 0-5.395-.417-7.754-1.22a15.131 15.131 0 0 1-5.013-2.888c-1.563-1.4-2.919-3.185-3.774-4.972-.059-.119 0-.238.118-.327.03 0 .088-.03.118-.03.147 0 .324.03.53.03h.09a34.838 34.838 0 0 0-.414-.506l-.03-.03c-.294-.387-.53-.774-.766-1.101a.272.272 0 0 1 .06-.328c.029 0 .058-.03.088-.03h.059c.56-.089 1.09-.178 1.562-.476.65-.417 1.032-1.19 1.416-1.905.059-.12.118-.268.206-.387l.53-.983c.384-.714.767-1.458 1.121-2.203.56-1.22 1.091-2.322 1.799-3.304.088-.12.147-.208.236-.327 0-.417-.03-.834-.03-1.28-.03-.953-.088-1.965 0-2.829.177-1.726.443-3.185 1.15-4.703.03-.09.089-.15.118-.209a.701.701 0 0 1 .325-.178c.737-.179 1.828.06 2.624.357.884.328 1.769.744 2.594 1.25.413.268.797.566 1.18.893.324.268.619.507.973.745.177-.06.354-.09.53-.15.944-.237 1.888-.356 2.86-.416l-.058-.06c-.266-.208-.59-.476-.59-.833 0-.12.088-.208.206-.208.531-.06 1.032 0 1.534.119-.118-.209-.266-.447-.354-.685-.03-.06-.06-.12-.089-.208-.206-.417-.442-.923-.324-1.4.03-.119.147-.208.265-.178 1.032.149 1.858.863 2.507 1.548.088.119.206.208.294.297.207.239.443.477.65.685.117.09.206.209.294.298.177.208.324.417.56.446.03 0 .089.03.118.06 1.533-.03 2.772.09 3.922.417 1.916-1.965 3.744-3.81 6.486-4.496.148-.059.295-.03.413 0a.53.53 0 0 1 .207.15c.737.773.914 1.369 1.209 2.292.825 2.56.442 5.566-.06 7.65l.295.298c.502.506.973 1.042 1.416 1.548.265.298.53.625.796.923 1.268 1.4 3.007 3.007 5.19 3.275.117 0 .206.119.206.267 0 .06-.03.12-.089.15l-.059.059c-.265.238-.53.476-.855.685.207.06.442.089.678.119.236 0 .501.06.737.119h.03c.118.119.177.238.147.357Z" fill="#2F2F2F"/><defs><linearGradient id="a" x1="2" y1="48" x2="94" y2="48" gradientUnits="userSpaceOnUse"><stop stop-color="#CBCBCB"/><stop offset="1" stop-color="#fff"/></linearGradient><linearGradient id="b" x1="32.356" y1="43.388" x2="39.047" y2="43.388" gradientUnits="userSpaceOnUse"><stop offset=".004" stop-color="#E0CE00"/><stop offset=".168" stop-color="#FEF000"/></linearGradient><linearGradient id="c" x1="39.047" y1="43.388" x2="45.738" y2="43.388" gradientUnits="userSpaceOnUse"><stop offset=".004" stop-color="#28A6A0"/><stop offset=".009" stop-color="#28A7A2"/><stop offset=".168" stop-color="#28C2D1"/></linearGradient><linearGradient id="d" x1="45.707" y1="43.388" x2="52.398" y2="43.388" gradientUnits="userSpaceOnUse"><stop stop-color="#98C808"/><stop offset=".02" stop-color="#98CF09"/><stop offset=".103" stop-color="#9AE70A"/><stop offset=".154" stop-color="#9BF00B"/></linearGradient><linearGradient id="e" x1="52.397" y1="43.388" x2="57.973" y2="43.388" gradientUnits="userSpaceOnUse"><stop stop-color="#D273DF"/><stop offset=".024" stop-color="#D37CE6"/><stop offset=".105" stop-color="#D494F8"/><stop offset=".154" stop-color="#D59DFF"/></linearGradient><linearGradient id="f" x1="57.975" y1="43.388" x2="64.665" y2="43.388" gradientUnits="userSpaceOnUse"><stop stop-color="#A82100"/><stop offset=".002" stop-color="#A92100"/><stop offset=".168" stop-color="#D83B01"/></linearGradient><linearGradient id="g" x1="64.635" y1="43.388" x2="71.326" y2="43.388" gradientUnits="userSpaceOnUse"><stop stop-color="#04498B"/><stop offset=".056" stop-color="#0359A5"/><stop offset=".168" stop-color="#0078D4"/></linearGradient><linearGradient id="h" x1="32.356" y1="61.205" x2="39.047" y2="61.205" gradientUnits="userSpaceOnUse"><stop offset="0" stop-color="#B4B4B4"/><stop offset=".094" stop-color="#CBCBCB"/><stop offset=".154" stop-color="#D4D4D4"/></linearGradient><linearGradient id="i" x1="39.047" y1="61.205" x2="45.738" y2="61.205" gradientUnits="userSpaceOnUse"><stop offset=".005" stop-color="#8C8C8C"/><stop offset=".168" stop-color="#AAA"/></linearGradient><linearGradient id="j" x1="45.707" y1="61.205" x2="52.398" y2="61.205" gradientUnits="userSpaceOnUse"><stop offset=".001" stop-color="#646464"/><stop offset=".088" stop-color="#777"/><stop offset=".154" stop-color="gray"/></linearGradient><linearGradient id="k" x1="52.397" y1="61.205" x2="57.973" y2="61.205" gradientUnits="userSpaceOnUse"><stop offset=".001" stop-color="#464646"/><stop offset=".154" stop-color="#555"/></linearGradient><linearGradient id="l" x1="57.975" y1="61.205" x2="64.665" y2="61.205" gradientUnits="userSpaceOnUse"><stop offset=".002" stop-color="#191919"/><stop offset=".168" stop-color="#2F2F2F"/></linearGradient><linearGradient id="m" x1="64.635" y1="61.205" x2="71.326" y2="61.205" gradientUnits="userSpaceOnUse"><stop offset=".002" stop-color="#050505"/><stop offset=".168" stop-color="#101010"/></linearGradient></defs></svg>