<svg width="100" height="100" fill="none" xmlns="http://www.w3.org/2000/svg"><path fill-rule="evenodd" clip-rule="evenodd" d="M50 2c26.5 0 48 21.5 48 48S76.5 98 50 98 2 76.5 2 50 23.5 2 50 2Z" fill="#01B6C3"/><mask id="a" mask-type="alpha" maskUnits="userSpaceOnUse" x="2" y="2" width="96" height="96"><path fill-rule="evenodd" clip-rule="evenodd" d="M50 2c26.5 0 48 21.5 48 48S76.5 98 50 98 2 76.5 2 50 23.5 2 50 2Z" fill="#fff"/></mask><g mask="url(#a)"><path d="M11.3 56.522v-3.5h79v3.5l-39.5 21.8-39.5-21.8Z" fill="#A9B3B6"/><path d="M11.3 56.522v-3.5h39.4l.1 25.3-39.5-21.8Z" fill="#C7CCCE"/><path d="m11.3 53.022 39.5-23.7 39.5 23.7-39.5 21.8-39.5-21.8Z" fill="#E1E4E1"/><path d="m47.1 31.523-9.7 35.8-3.7-2 8.9-31.1 4.5-2.7Zm16.1 5.299-16.9 35.6-3.6-2 17.2-35.6 3.3 2Z" fill="#fff"/><path d="m61.8 68.722-11.9-7.3 2.2-3.1 13.7 8.2-4 2.2Zm-23-13.399-15.5-9.5 3.7-2.2 14.1 8.6-2.3 3.1Zm40 4.099-4.3 2.4c-3.4-2.6-5-6-5-9.8 0-3.5 1.7-6 4.9-8.5l3.9 2.3c-2.2 1.7-4.2 4.1-4.2 6.1 0 2.5 2.3 5.6 4.7 7.5Z" fill="#fff"/><path fill-rule="evenodd" clip-rule="evenodd" d="M30.5 55.022c0 1-1.6 1.8-3.5 1.8s-3.5-.8-3.5-1.8 1.6-1.8 3.5-1.8 3.5.8 3.5 1.8Z" fill="#A9B3B6"/><path d="M28.137 31.523h-2.3v24.1h2.3v-24.1Z" fill="#053A3E"/><path d="m28.137 31.523 14.1 6.3-14.1 7v-13.3Z" fill="#33A7CB"/><path d="m28.137 31.523 14.1 6.3-14.1.3v-6.6Z" fill="#0095B2"/><path fill-rule="evenodd" clip-rule="evenodd" d="M53.6 42.922c0 1-1.6 1.8-3.5 1.8s-3.5-.8-3.5-1.8 1.6-1.8 3.5-1.8 3.5.8 3.5 1.8Z" fill="#A9B3B6"/><path d="M51.237 19.422h-2.3v24.1h2.3v-24.1Z" fill="#053A3E"/><path d="m51.237 19.422 14.1 6.3-14.1 7v-13.3Z" fill="#C2423D"/><path d="m51.237 19.422 14.1 6.3-14.1.3v-6.6Z" fill="#AB3B37"/><path fill-rule="evenodd" clip-rule="evenodd" d="M66.8 58.322c0 1-1.6 1.8-3.5 1.8s-3.5-.8-3.5-1.8 1.6-1.8 3.5-1.8 3.5.8 3.5 1.8Z" fill="#A9B3B6"/><path d="M64.438 34.822h-2.3v24.1h2.3v-24.1Z" fill="#053A3E"/><path d="m64.438 34.822 14.1 6.3-14.1 7v-13.3Z" fill="#7CB65A"/><path d="m64.438 34.822 14.1 6.3-14.1.3v-6.6Z" fill="#69994E"/></g><path d="M50 2c26.5 0 48 21.5 48 48S76.5 98 50 98 2 76.5 2 50 23.5 2 50 2Z" stroke="#1D8E96" stroke-width="4"/></svg>