<?xml version="1.0" encoding="utf-8"?>
<svg xmlns="http://www.w3.org/2000/svg" height="256" width="256" viewBox="0 0 256 256">
  <g>
    <path id="path1" transform="rotate(0,128,128) translate(61.147622024446,59) scale(4.31250102818037,4.31250102818037)  " fill="#FFFFFF" d="M2.3392361,22.792825C2.5382391,22.991828 2.6372374,22.892831 2.8362404,22.892831 3.0352136,22.892831 3.1352187,22.991828 3.2342172,23.091834L8.4101668,28.266782C8.60917,28.466792 8.60917,28.86477 8.4101668,29.162773 8.2111932,29.361776 8.0121899,29.361776 7.8131867,29.262777 7.9121848,29.560779 7.8131867,29.859758 7.6141835,30.058761 7.4151803,30.158767 7.2161766,30.257764 7.0172039,30.257764L6.9171987,30.257764C7.0172039,30.456767 6.9171987,30.755746 6.8182002,30.954749 6.6181899,31.053748 6.4191867,31.153755 6.220183,31.153755 6.3201886,31.352758 6.220183,31.651767 6.1211849,31.85074 5.9222122,32.049745 5.5242053,32.049745 5.2251969,31.85074L3.5332256,30.158767 2.5382391,31.252752C2.4382339,31.352758,2.3392359,31.352758,2.2392305,31.252752L0.84623726,29.859758C0.74623217,29.759782,0.74623217,29.660785,0.84623726,29.560779L1.9402221,28.266782 0.14925262,26.375806C-0.049750872,26.176803 -0.049750872,25.778795 0.14925262,25.480792 0.3482559,25.380788 0.54725929,25.280813 0.74623211,25.280813 0.64625742,25.081809 0.74623217,24.783807 0.94523527,24.584804 1.0452407,24.484798 1.2442442,24.385801 1.3432421,24.385801L1.4432478,24.385801 1.5422458,24.385801C1.4432475,24.186798 1.5422457,23.887819 1.6422509,23.688815 1.741249,23.588809 1.9402219,23.48981 2.0402273,23.48981L2.2392305,23.48981C2.1392253,23.290807,2.1392253,22.991828,2.3392361,22.792825z M14.880111,20.005828L17.965105,21.100822C18.065081,22.991828 15.875097,26.176803 12.192146,25.878801 9.3061543,25.679798 8.8081733,26.873788 8.8081733,26.873788L6.220183,24.285825C8.8081733,21.299825,13.884117,25.181816,14.880111,20.005828z M5.4242001,15.924866L9.1071816,17.218862C7.116202,18.313856 7.8131867,20.105834 8.0121899,21.896837 7.0172039,21.996841 6.220183,22.294813 5.3252021,23.290807L4.7272154,22.693828C4.7272154,22.693828 5.3252021,22.294813 4.7272154,19.508853 4.4292136,18.413862 3.5332256,16.12387 5.4242001,15.924866z M8.3755952,12.731916C8.4859591,12.731015 8.5971766,12.733706 8.7091752,12.739893 13.486141,12.739893 19.657078,17.815874 23.639036,15.327886 20.951073,23.688815 9.2061797,12.839898 4.2302104,15.526889 5.256765,13.567504 6.7201405,12.745448 8.3755952,12.731916z M12.39115,8.459927C17.169092,8.459927 23.340059,13.536884 27.321011,11.04792 24.634024,19.508853 12.889131,8.5599321 7.9121848,11.246924 9.1071816,9.1569122 10.600149,8.459927 12.39115,8.459927z M15.975103,4.1799606L16.174107,4.1799606C20.951073,4.2799662 27.122007,9.2569183 31.003994,6.7679538 28.317005,15.228888 16.572113,4.2799662 11.595136,6.9669575 12.690127,4.8769616 14.183127,4.1799606 15.975103,4.1799606z M20.155089,0C23.141056,0 26.426031,1.6919885 25.928019,2.8859795 25.530043,3.9809724 25.231033,4.6779579 20.951073,3.0859751 16.67111,1.5929902 15.875097,2.7869812 15.875097,2.786981 16.472107,0.69698567 18.264084,0 20.155089,0z" />
  </g>
</svg>

