<svg width="100" height="100" fill="none" xmlns="http://www.w3.org/2000/svg"><g clip-path="url(#a)"><path d="M50 97.98c26.464 0 47.917-21.466 47.917-47.947S76.464 2.085 50 2.085c-26.463 0-47.916 21.467-47.916 47.948C2.084 76.513 23.537 97.98 50 97.98Z" fill="url(#b)"/><path d="M50 4.17c25.278 0 45.833 20.568 45.833 45.863 0 25.294-20.555 45.863-45.833 45.863S4.167 75.327 4.167 50.033C4.167 24.738 24.722 4.169 50 4.169ZM50 0C22.361 0 0 22.376 0 50.033s22.361 50.033 50 50.033 50-22.376 50-50.033S77.639 0 50 0Z" fill="#0078D4"/><path fill-rule="evenodd" clip-rule="evenodd" d="m73.18 62.533-2.623-30.184-45.245 3.937c-.853.066-1.509.853-1.443 1.706l3.213 36.548c.066.853.853 1.51 1.705 1.444l45.246-3.937a3.982 3.982 0 0 0 3.606-4.33l-.459-5.578-4 .394Z" fill="#28A7E9"/><path fill-rule="evenodd" clip-rule="evenodd" d="m73.377 64.108-.787.065c-.852.066-1.64-.59-1.705-1.444l-3.213-36.548c-.065-.853.59-1.64 1.443-1.706l.787-.066c2.164-.197 4.13 1.444 4.328 3.61l3.475 39.763c-.262-2.23-2.164-3.806-4.328-3.674Z" fill="#0078D4"/><path fill-rule="evenodd" clip-rule="evenodd" d="M43.524 51.911c.027 2.567 1.153 4.905 3.136 6.51a5.21 5.21 0 0 1 1.965 3.648l.28 3.203c.085.98.938 1.696 1.923 1.676.336.827 1.254 1.537 2.3 1.445 1.044-.092 1.825-.95 2.012-1.823.974-.151 1.69-1.004 1.604-1.985l-.28-3.203a5.213 5.213 0 0 1 1.302-3.934 8.112 8.112 0 0 0 1.96-6.956c-.67-3.893-4.21-6.744-8.159-6.728l-1.175.103c-3.892.67-6.884 4.094-6.868 8.044Zm12.047 12.053-5.684.497-.046-.523 5.684-.497.046.523Zm-2.53 3.448c-.457.04-.812-.258-1.102-.562l2.025-.177c-.167.344-.53.705-.923.74Zm1.818-1.805-3.986.349a.852.852 0 0 1-.83-.455l5.554-.486c-.102.338-.346.557-.739.592Zm.58-3.147-5.683.498-.046-.523 5.684-.498.045.523Zm-5.165-8.637-.653.057a.657.657 0 0 1-.71-.596.658.658 0 0 1 .596-.71.657.657 0 0 1 .71.596l.057.653Zm1.071.96 1.11-.097.566 6.471-1.11.097-.566-6.47Zm-.797-9.876.98-.085c3.485-.042 6.535 2.457 7.158 5.827.39 2.206-.205 4.431-1.707 6.078-1.02 1.143-1.612 2.644-1.611 4.159L54.06 61l-.566-6.471.654-.057c.914-.08 1.63-.933 1.55-1.849-.08-.915-.933-1.63-1.847-1.55-.915.08-1.63.933-1.55 1.848l.057.654-1.11.097-.058-.654c-.08-.915-.932-1.63-1.847-1.55-.915.08-1.63.933-1.55 1.848.08.915.933 1.63 1.847 1.55l.653-.057.566 6.472-1.307.114c-.262-1.492-1.106-2.867-2.308-3.816-1.765-1.36-2.737-3.448-2.735-5.688.03-3.427 2.599-6.419 6.038-6.984Zm2.862 8.642-.057-.654a.657.657 0 0 1 .596-.711.657.657 0 0 1 .71.596.658.658 0 0 1-.596.711l-.653.057ZM50 38.632l.205 2.353c.028.327.307.5.568.477a.517.517 0 0 0 .477-.569l-.206-2.353a.517.517 0 0 0-.568-.477c-.327.029-.505.242-.477.569Zm8.941 1.391c-.278-.174-.6-.08-.707.193l-1.206 2.016c-.173.279-.08.6.193.708.279.173.6.079.708-.194l1.206-2.016c.113-.207.02-.529-.194-.707Zm3.225 8.28 2.159-.914c.255-.088.423-.432.27-.682-.09-.255-.433-.423-.683-.27l-2.164.849c-.255.088-.423.432-.27.682.095.321.367.429.688.335Zm.208 6.897 2.284.525c.267.043.583-.117.625-.384.043-.267-.117-.582-.384-.625l-2.284-.524c-.267-.043-.582.117-.624.384-.108.273.117.582.383.625Zm-3.115 5.016a.534.534 0 0 0-.73-.068.534.534 0 0 0-.068.73l1.537 1.776a.533.533 0 0 0 .73.068.534.534 0 0 0 .068-.73l-1.537-1.776ZM44.26 64.098c.28.173.6.08.708-.194l1.206-2.016c.173-.278.08-.6-.193-.707-.279-.173-.6-.08-.707.194l-1.141 2.01c-.173.278-.08.6.128.713Zm-4.959-6.284 2.158-.914c.256-.088.423-.432.27-.682-.088-.256-.432-.423-.682-.27l-2.158.914c-.256.088-.423.432-.27.682.088.256.426.358.682.27Zm-.993-8.344 2.284.524c.267.042.583-.117.625-.384.043-.267-.117-.583-.384-.625l-2.284-.525c-.267-.042-.582.117-.624.384-.108.273.116.583.383.625Zm4.896-8.004a.534.534 0 0 0-.73-.068.534.534 0 0 0-.068.73l1.537 1.776a.534.534 0 0 0 .73.068.534.534 0 0 0 .068-.73l-1.537-1.776Z" fill="#fff"/><path fill-rule="evenodd" clip-rule="evenodd" d="M51.23 46.692c.98-.086 1.918.095 2.747.55.071.059.202.048.267.042.196-.017.321-.094.435-.302.107-.273.02-.528-.194-.707-1.031-.503-2.17-.732-3.28-.635a.517.517 0 0 0-.478.569c-.036.332.177.511.503.483Zm4.913 2.731c.082.19.29.304.485.287.066-.006.131-.012.19-.083.25-.153.358-.426.205-.676a7.386 7.386 0 0 0-.904-1.304c-.213-.18-.48-.222-.724-.003-.18.214-.222.48-.003.725.29.304.52.679.75 1.054Z" fill="#fff"/><path fill-rule="evenodd" clip-rule="evenodd" d="m31.803 41.404 7.213.919c0 .197-.13.721-.262.853l-3.41 4.462a.939.939 0 0 1-.656.262c-.262 0-.459-.197-.59-.394l-2.23-5.183c-.13-.197-.065-.788-.065-.919Z" fill="#E1E4E1"/><path fill-rule="evenodd" clip-rule="evenodd" d="m35.41 41.863 3.606.46c0 .197-.13.721-.262.853l-3.41 4.462a.94.94 0 0 1-.656.262l.722-6.037Z" fill="#C5CCCD"/><path fill-rule="evenodd" clip-rule="evenodd" d="M40.46 24.081c.458.066.786.46.72.919l-.262 2.034c-.065.46-.459.787-.918.722l-5.64-.722c-.458-.066-.786-.46-.72-.919l.262-2.034c.065-.46.459-.787.918-.722l5.64.722Z" fill="#FF9149"/><path fill-rule="evenodd" clip-rule="evenodd" d="m36.918 41.995-1.574.656-1.442-.985 1.901-15.288 2.951.393-1.836 15.224Z" fill="#EFB252"/><path fill-rule="evenodd" clip-rule="evenodd" d="m39.016 42.257-1.311.656-1.115-.918 1.902-15.29 2.426.329-1.902 15.223Z" fill="#CC9547"/><path fill-rule="evenodd" clip-rule="evenodd" d="m34.23 41.666-1.312.657-1.115-.92 1.836-15.288 2.426.328-1.835 15.223Z" fill="#F7CB64"/><path fill-rule="evenodd" clip-rule="evenodd" d="m33.508 46.063 2.754.328-.918 1.18a.94.94 0 0 1-.655.263c-.263 0-.46-.196-.59-.393l-.59-1.378Z" fill="#30404D"/><path fill-rule="evenodd" clip-rule="evenodd" d="m34.885 46.26 1.377.197-.918 1.18a.939.939 0 0 1-.656.263l.197-1.64Z" fill="#182A37"/><path fill-rule="evenodd" clip-rule="evenodd" d="m40.852 27.428-7.213-.919c-.196 0-.393-.262-.328-.46.066-.196.197-.393.46-.327l7.213.918c.196 0 .393.263.327.46a.493.493 0 0 1-.459.328Z" fill="#ADBDC4"/><path fill-rule="evenodd" clip-rule="evenodd" d="M40.984 26.575c.196 0 .393.262.327.459a.357.357 0 0 1-.459.328l-3.606-.46.131-.787 3.607.46Z" fill="#8BA6B1"/><path fill-rule="evenodd" clip-rule="evenodd" d="M36 27.297v-.46l2.426.263-.065.459L36 27.297Z" fill="#CC9547"/><path fill-rule="evenodd" clip-rule="evenodd" d="m33.574 26.968.065-.459 2.361.328v.46l-2.426-.329Z" fill="#EFB252"/><path fill-rule="evenodd" clip-rule="evenodd" d="M28.918 66.076c.656-.328.918-1.05.656-1.706-.328-.656-1.05-.919-1.705-.656a1.325 1.325 0 0 0-.656 1.706c.328.722 1.05.984 1.705.656Zm-7.344-25a.844.844 0 0 1 1.115.394l10.885 23.36a.844.844 0 0 1-.394 1.115l-7.016 3.28a.844.844 0 0 1-1.115-.393L14.1 45.472a.845.845 0 0 1 .393-1.115l7.082-3.281Z" fill="#D8E8F0"/><path fill-rule="evenodd" clip-rule="evenodd" d="m23.213 42.65.393.788-2.754 1.247c-.196.131-.459 0-.59-.197-.13-.197 0-.46.197-.59l2.754-1.247Zm2.23 4.66.393.787-2.754 1.247c-.197.13-.46 0-.59-.197-.131-.197 0-.46.197-.59l2.754-1.247Zm-1.115-2.297.393.787-4.262 1.969c-.197.131-.459 0-.59-.197-.131-.197 0-.46.197-.59l4.262-1.97Zm2.164 4.659.393.787-4.262 1.969c-.197.131-.46 0-.59-.197-.131-.197 0-.46.197-.59l4.262-1.97Zm1.115 2.362.393.787-2.754 1.247c-.197.131-.459 0-.59-.197-.131-.197 0-.46.197-.59l2.754-1.247Zm1.049 2.296.393.788-4.262 1.968c-.197.132-.459 0-.59-.196-.131-.197 0-.46.197-.59l4.262-1.97Zm1.114 2.363.394.787-2.754 1.247c-.197.131-.46 0-.59-.197-.131-.197 0-.46.196-.59l2.755-1.247Zm1.115 2.362.394.787-4.262 1.969c-.197.131-.46 0-.59-.197-.132-.197 0-.46.196-.59l4.262-1.97Z" fill="#617C93"/></g><defs><linearGradient id="b" x1="50" y1="97.981" x2="50" y2="2.085" gradientUnits="userSpaceOnUse"><stop stop-color="#125A9A"/><stop offset=".99" stop-color="#243A5E"/><stop offset="1" stop-color="#CF8B17"/></linearGradient><clipPath id="a"><path fill="#fff" d="M0 0h100v100H0z"/></clipPath></defs></svg>